# xmcd
#
# Track frame offsets: 
#        150
#        15123
#        35046
#        73044
#        89892
#        111540
#        132588
#        156561
#        182409
#        199632
#        229905
#        250578
#        287976
#        307299
#
# Disc length: 4425 seconds
#
# Revision: 2
# Processed by: cddbd v1.5.2PL0 Copyright (c) Steve Scherf et al.
# Submitted via: ExactAudioCopy v0.95a5
#
DISCID=d411470e
DTITLE=Tony Spinner - Rollin and Tumblin
DYEAR=2009
DGENRE=Blues Rock
TTITLE0=Saturn Blues
TTITLE1=Count Your Blessings
TTITLE2=Rumlin' and Tumblin' with the Blues
TTITLE3=Walkin' the Dawg
TTITLE4=Lay Down Your Crutch
TTITLE5=Saving Grace
TTITLE6=CC Rider
TTITLE7=Cathead Biscuit
TTITLE8=Walkin' the Walk
TTITLE9=Goldfish Bowl Blues
TTITLE10=Luv Thang
TTITLE11=Listen to Your Heart
TTITLE12=Love Junkie
TTITLE13=Catfish/Make Love to You
EXTD=
EXTT0=
EXTT1=
EXTT2=
EXTT3=
EXTT4=
EXTT5=
EXTT6=
EXTT7=
EXTT8=
EXTT9=
EXTT10=
EXTT11=
EXTT12=
EXTT13=
PLAYORDER=
